<svg xmlns="http://www.w3.org/2000/svg" viewBox="0 0 64 64" width="64" height="64">
  <rect width="64" height="64" rx="16" fill="#5865F2"/>
  <path d="M44.8 18.8a32 32 0 0 0-7.6-2.4l-.4.8c2.4.4 4.4 1.2 6.4 2.4-2.4-1.2-5.2-2-8-2.4-.8 0-1.6-.4-2.4-.4h-2.4c-3.6.4-7.2 1.2-10.4 2.8 2-1.2 4-2 6.4-2.4l-.4-.8c-2.4.4-5.2 1.2-7.6 2.4-3.2 6-4 11.6-3.6 17.2 3.2 2.4 6.4 3.6 9.2 4.4l1.6-2.4c-1.6-.4-3.2-1.2-4.8-2 .4-.4.8-.4 1.2-.8 5.6 2.8 11.6 2.8 17.2 0l1.2.8c-1.6.8-3.2 1.6-4.8 2l1.6 2.4c2.8-.8 6-2 9.2-4.4.8-6 -.4-12-3.6-17.2zM25.2 32c-1.6 0-3.2-1.6-3.2-3.6s1.2-3.6 3.2-3.6 3.2 1.6 3.2 3.6-1.6 3.6-3.2 3.6zm12 0c-1.6 0-3.2-1.6-3.2-3.6s1.2-3.6 3.2-3.6 3.2 1.6 3.2 3.6-1.6 3.6-3.2 3.6z" fill="#fff"/>
</svg>
