<svg xmlns="http://www.w3.org/2000/svg" viewBox="0 0 64 64" width="64" height="64">
  <rect width="64" height="64" rx="16" fill="#07C160"/>
  <g fill="#fff">
    <path d="M25 18c-7 0-13 5-13 11 0 3 2 6 5 8l-1 4 5-3c1 0 3 0 4 0v-1c0-7 7-12 14-12-1-4-7-7-14-7zm-5 8a2 2 0 1 1 0-4 2 2 0 0 1 0 4zm10 0a2 2 0 1 1 0-4 2 2 0 0 1 0 4z"/>
    <path d="M52 33c0-6-6-10-12-10s-12 4-12 10c0 6 6 10 12 10 1 0 2 0 3 0l4 2-1-3c4-2 6-5 6-9zm-15-2a2 2 0 1 1 0-4 2 2 0 0 1 0 4zm8 0a2 2 0 1 1 0-4 2 2 0 0 1 0 4z"/>
  </g>
</svg>
